<?xml version="1.0" standalone="no"?>
<!DOCTYPE svg PUBLIC "-//W3C//DTD SVG 20010904//EN"
 "http://www.w3.org/TR/2001/REC-SVG-20010904/DTD/svg10.dtd">
<svg version="1.0" xmlns="http://www.w3.org/2000/svg"
 width="300.000000pt" height="175.000000pt" viewBox="0 0 300.000000 175.000000"
 preserveAspectRatio="xMidYMid meet">
<metadata>
Created by potrace 1.10, written by Peter Selinger 2001-2011
</metadata>
<g transform="translate(0.000000,175.000000) scale(0.100000,-0.100000)"
fill="#ffffff" stroke="none">
<path d="M60 890 l0 -845 80 0 c60 0 80 3 80 13 0 10 -9 12 -32 7 l-33 -6 30
27 c17 15 29 29 28 31 -2 2 -2 9 -2 16 1 6 5 -4 9 -23 5 -21 6 3 3 60 -2 52
-8 111 -13 130 -7 30 -8 24 -9 -37 -1 -47 -5 -73 -12 -73 -8 0 -8 -4 1 -15 14
-17 4 -58 -13 -52 -7 2 -12 10 -12 18 0 9 -13 15 -32 17 -20 2 -33 -1 -33 -8
0 -6 6 -8 12 -4 8 4 10 3 5 -2 -5 -5 -14 -9 -20 -9 -19 0 -20 -35 -1 -56 16
-18 16 -19 -4 -19 l-22 0 0 830 0 830 60 0 c50 0 60 -3 60 -17 0 -14 2 -15 9
-5 7 11 115 15 587 17 331 2 586 -1 596 -6 10 -5 19 -5 22 0 5 7 1504 9 1549
2 4 0 6 -373 6 -828 -1 -456 -3 -820 -6 -810 -2 9 -9 17 -15 17 -6 0 -5 7 3
17 10 11 10 14 2 9 -8 -4 -13 -2 -13 5 0 7 -3 9 -7 5 -4 -4 -6 -23 -5 -42 3
-40 -12 -38 -22 2 -5 17 -3 30 5 34 8 6 8 13 1 26 -10 17 -11 17 -16 -6 -3
-14 -7 -44 -8 -68 l-4 -43 51 3 50 3 3 838 c2 666 0 841 -10 850 -10 9 -352
12 -1461 12 l-1447 0 0 -845z m108 -776 c15 -15 14 -18 -3 -30 -24 -18 -40
-18 -59 2 -17 17 -22 39 -7 29 5 -3 12 -1 16 5 9 15 34 12 53 -6z"/>
<path d="M122 1702 c-29 -4 -46 -45 -32 -73 6 -10 15 -19 21 -19 6 0 7 -4 4
-10 -10 -16 5 -12 42 11 26 17 33 27 31 47 -4 29 -34 50 -66 44z m41 -19 c-7
-3 -9 -11 -6 -19 3 -7 9 -11 14 -8 15 9 10 -13 -6 -26 -18 -15 -61 -6 -68 14
-4 10 4 19 23 28 16 7 26 16 24 20 -3 4 3 5 12 1 10 -4 13 -8 7 -10z"/>
<path d="M1366 1640 c-494 -44 -859 -197 -1045 -437 -46 -58 -121 -179 -121
-193 0 -5 -3 -11 -7 -13 -5 -3 -7 135 -5 306 2 171 1 309 -2 306 -11 -11 -18
-721 -7 -714 6 3 11 21 11 39 0 18 8 44 18 57 10 13 39 58 65 99 47 77 102
140 172 200 22 19 39 38 37 43 -1 5 2 6 8 2 9 -6 58 23 88 52 7 7 19 13 26 13
7 0 21 9 30 19 10 11 40 25 66 31 27 7 61 24 76 38 15 15 24 21 20 15 -8 -14
15 -18 28 -5 4 4 11 7 14 8 9 0 87 22 132 36 19 6 51 13 70 15 19 2 40 9 47
15 10 8 13 7 13 -3 0 -10 3 -10 8 -3 4 6 29 12 55 12 26 1 52 4 57 7 5 3 39 6
75 6 49 1 65 4 65 15 0 8 5 14 10 14 6 0 10 -4 10 -8 0 -16 88 -13 104 3 8 8
27 15 43 14 28 -1 28 -1 3 -8 -23 -6 -24 -7 -5 -15 13 -4 23 -2 30 7 14 19 52
30 60 17 3 -5 15 -15 27 -21 17 -9 19 -8 14 9 -6 18 -3 20 21 17 15 -2 71 -6
123 -10 52 -3 106 -7 120 -9 14 -2 53 -6 87 -11 41 -4 61 -11 56 -18 -4 -6 0
-8 10 -4 33 13 265 -48 252 -66 -3 -4 0 -3 6 2 6 5 25 1 47 -10 20 -11 46 -19
57 -19 11 0 30 -7 41 -15 12 -8 24 -11 28 -8 3 3 6 1 6 -6 0 -7 4 -10 9 -6 5
3 12 1 16 -5 3 -5 15 -10 26 -10 11 0 17 -4 14 -10 -4 -6 1 -7 12 -3 15 6 16
5 5 -9 -11 -14 -10 -16 6 -11 16 4 112 -44 132 -66 3 -4 22 -14 42 -25 20 -10
51 -32 67 -48 17 -17 31 -27 31 -22 0 4 6 1 13 -8 16 -21 71 -55 66 -41 -6 16
-105 94 -194 153 -205 133 -460 223 -770 271 -150 23 -466 32 -619 19z m61
-16 c-3 -3 -12 -4 -19 -1 -8 3 -5 6 6 6 11 1 17 -2 13 -5z m46 -1 c-7 -2 -19
-2 -25 0 -7 3 -2 5 12 5 14 0 19 -2 13 -5z m-300 -30 c-7 -2 -19 -2 -25 0 -7
3 -2 5 12 5 14 0 19 -2 13 -5z"/>
<path d="M1583 1623 c-7 -3 -13 -8 -13 -12 0 -10 39 -11 45 -1 6 10 -16 19
-32 13z"/>
<path d="M1680 1608 c0 -5 11 -7 25 -5 37 5 41 16 6 15 -17 -1 -31 -5 -31 -10z"/>
<path d="M1775 1611 c-3 -5 -1 -12 5 -16 5 -3 10 1 10 9 0 18 -6 21 -15 7z"/>
<path d="M1805 1600 c-3 -5 -1 -10 4 -10 6 0 11 5 11 10 0 6 -2 10 -4 10 -3 0
-8 -4 -11 -10z"/>
<path d="M1865 1600 c-4 -6 -4 -10 -1 -10 2 0 11 -3 20 -6 9 -3 16 -2 16 4 0
14 -28 23 -35 12z"/>
<path d="M1935 1590 c-7 -11 30 -19 45 -10 7 5 2 9 -14 12 -15 3 -29 2 -31 -2z"/>
<path d="M2030 1566 c0 -2 7 -6 15 -10 8 -3 15 -1 15 4 0 6 -7 10 -15 10 -8 0
-15 -2 -15 -4z"/>
<path d="M2070 1559 c0 -5 11 -9 25 -9 14 0 25 2 25 4 0 2 -11 6 -25 8 -14 3
-25 1 -25 -3z"/>
<path d="M1219 1539 c-56 -33 -79 -84 -92 -199 -9 -85 -9 -104 6 -141 20 -50
23 -47 -85 -88 -134 -52 -151 -67 -210 -189 -28 -59 -64 -126 -80 -149 -15
-23 -29 -50 -31 -61 -1 -10 -11 -32 -22 -48 -15 -22 -20 -48 -21 -109 0 -44 3
-88 8 -98 5 -10 5 -25 -2 -37 -14 -26 7 -67 63 -126 95 -98 105 -111 116 -163
15 -71 14 -92 -3 -85 -8 3 -12 12 -10 19 3 7 1 16 -5 20 -6 3 -11 0 -11 -8 0
-8 -7 -21 -16 -28 -15 -12 -16 -8 -11 50 6 61 -6 111 -26 111 -5 0 -7 7 -3 15
3 8 0 15 -6 15 -6 0 -8 -11 -4 -30 3 -19 2 -29 -4 -25 -6 4 -10 -13 -10 -42 0
-35 3 -44 10 -33 5 8 10 27 10 42 0 15 4 30 10 33 6 4 9 -12 8 -39 -1 -24 -6
-42 -10 -40 -4 3 -8 -9 -8 -25 0 -17 -4 -31 -9 -31 -10 0 -21 34 -21 68 0 13
-4 20 -10 17 -6 -3 -10 -24 -10 -46 0 -26 -4 -38 -11 -33 -15 9 -2 76 17 91 9
6 15 22 13 35 -1 13 1 36 6 51 6 21 3 33 -9 45 -16 16 -17 14 -11 -28 l7 -45
-31 45 c-31 46 -43 37 -17 -12 8 -15 11 -30 7 -33 -5 -2 -5 -24 0 -47 11 -58
11 -58 -7 -58 -10 0 -14 5 -10 16 3 8 2 13 -2 10 -5 -3 -9 8 -9 24 0 16 4 27
9 24 14 -9 8 10 -11 35 -10 14 -17 32 -14 40 3 12 1 11 -11 -3 -8 -10 -20 -15
-26 -11 -8 5 -6 13 7 28 17 21 17 22 -1 5 -18 -16 -21 -15 -55 10 -23 18 -31
20 -21 8 8 -11 14 -29 13 -40 -1 -12 0 -15 3 -8 7 14 24 16 24 3 0 -6 -12 -16
-27 -23 -35 -17 -42 -38 -11 -31 l23 5 -22 -20 c-19 -17 -22 -27 -17 -66 4
-41 3 -46 -16 -46 -23 0 -25 17 -9 70 5 19 12 46 13 60 2 13 8 26 14 28 21 7
-15 77 -68 132 -47 49 -49 50 -20 12 30 -40 32 -45 20 -70 -8 -15 -15 -38 -17
-52 -2 -14 -8 -26 -14 -28 -5 -2 -9 -21 -9 -43 0 -21 -4 -39 -9 -39 -16 0 -8
74 11 103 22 30 14 36 -14 10 -17 -15 -18 -15 -18 3 0 11 4 24 9 30 4 5 13 24
19 42 l11 33 -39 -28 c-26 -18 -38 -33 -34 -43 3 -8 6 -19 7 -25 1 -5 7 -13
12 -17 7 -5 6 -11 -1 -15 -17 -12 -34 -49 -35 -75 l0 -23 -9 22 c-5 13 -11 23
-14 23 -6 0 1 -73 8 -98 5 -13 1 -18 -15 -18 -20 0 -21 4 -16 51 7 67 38 146
47 120 5 -13 9 -15 14 -6 4 6 2 18 -4 26 -7 8 -10 15 -6 15 4 0 -9 25 -29 55
-40 63 -41 68 -20 85 8 7 15 18 15 24 -1 6 -10 0 -22 -14 -11 -14 -25 -24 -30
-22 -5 1 -7 -2 -4 -7 7 -11 -14 -61 -25 -61 -4 0 -6 -26 -3 -57 6 -89 6 -181
-1 -202 -7 -23 23 -29 162 -30 l92 0 -10 26 c-13 35 -8 194 6 185 5 -3 4 1 -3
10 -14 18 -6 48 13 48 8 0 17 -9 20 -21 9 -26 -2 -72 -15 -64 -6 4 -7 -3 -1
-18 7 -18 6 -30 -4 -43 -15 -20 -18 -67 -6 -98 7 -18 22 -19 187 -23 98 -2
186 -3 194 -2 8 1 460 3 1005 3 l990 1 2 35 c0 19 -1 25 -4 12 -2 -12 -9 -22
-14 -22 -7 0 -8 13 -4 32 7 32 6 32 -9 11 -9 -12 -13 -28 -10 -37 3 -9 1 -16
-5 -16 -18 0 -13 65 7 88 17 19 19 19 29 4 9 -14 11 -10 10 20 -1 23 -4 33 -9
25 -13 -21 -9 8 7 47 8 20 13 36 10 36 -9 0 -44 -77 -38 -84 4 -3 1 -6 -6 -6
-7 0 -11 6 -8 14 3 8 -4 22 -15 33 -14 11 -18 13 -13 3 5 -8 10 -20 11 -26 1
-6 5 -20 8 -31 4 -14 1 -19 -13 -20 -13 -1 -18 3 -15 12 6 14 -25 69 -34 61
-2 -3 2 -16 10 -28 10 -15 12 -30 7 -43 -13 -34 -10 -38 17 -20 15 9 25 13 22
8 -17 -36 -27 -61 -32 -76 -3 -9 -11 -17 -18 -17 -9 0 -8 3 2 10 12 8 12 10 1
10 -8 0 -11 7 -8 20 3 11 1 20 -4 20 -8 0 -14 -30 -10 -52 0 -5 -3 -8 -9 -8
-13 0 -13 4 5 70 17 64 18 73 6 66 -4 -3 -8 2 -7 12 1 27 -23 112 -33 112 -4
0 -20 -17 -34 -37 -22 -30 -27 -34 -28 -18 0 17 -2 16 -10 -5 -12 -30 -2 -147
13 -156 7 -5 9 5 4 31 -5 25 -4 35 3 30 16 -9 13 -68 -4 -91 -11 -15 -15 -16
-16 -4 -1 8 -1 18 0 22 0 5 -6 8 -14 8 -8 0 -15 9 -15 19 0 11 -3 28 -7 38 -6
16 -5 16 10 4 10 -8 17 -9 17 -3 0 6 -5 14 -11 18 -6 3 -9 17 -6 31 2 13 2 21
-1 18 -3 -2 -11 0 -19 6 -7 6 -13 8 -13 3 0 -4 -15 5 -32 22 -29 25 -30 26
-10 3 14 -16 19 -29 14 -33 -6 -3 -26 27 -46 68 -19 41 -39 77 -45 81 -15 9
-14 -1 5 -37 15 -28 32 -111 39 -184 2 -17 6 -45 9 -61 5 -23 3 -32 -9 -36
-13 -5 -14 0 -9 35 6 32 4 39 -6 33 -10 -6 -12 0 -7 29 4 25 2 34 -5 30 -7 -5
-9 1 -5 16 6 24 -14 73 -34 86 -8 4 -9 3 -5 -5 21 -34 23 -67 5 -90 l-18 -23
-27 29 -27 28 8 -25 c5 -14 9 -33 10 -42 1 -10 5 -21 10 -25 4 -5 5 -3 2 3 -4
7 0 15 9 18 9 4 12 2 8 -5 -3 -6 -6 -28 -6 -49 1 -32 -3 -38 -18 -37 -20 1
-38 27 -20 27 15 0 12 30 -5 46 -8 9 -15 23 -15 32 0 15 2 15 10 2 15 -24 12
2 -5 33 -13 25 -13 31 1 53 18 26 4 33 -16 9 -12 -14 -15 -14 -32 1 -10 10
-22 36 -25 58 -6 34 -9 23 -14 -63 -8 -134 2 -185 19 -88 6 38 8 76 5 85 -6
14 -4 15 9 4 17 -14 17 -51 -1 -95 -6 -16 -11 -35 -11 -42 0 -37 -38 -85 -41
-52 -2 23 -1 52 2 66 3 8 -6 14 -23 16 -27 3 -28 2 -28 -38 0 -23 -4 -47 -8
-54 -4 -6 -7 30 -7 82 0 51 3 97 8 101 4 4 7 12 7 18 0 5 -6 2 -13 -8 -22 -30
-29 5 -12 61 19 61 18 73 -2 48 -15 -19 -15 -19 -9 6 3 14 8 44 10 65 l5 39
-14 -40 c-7 -22 -14 -59 -14 -82 -1 -24 -6 -43 -12 -43 -5 0 -7 -4 -4 -10 3
-5 3 -15 0 -21 -4 -6 -17 11 -30 38 -12 26 -32 57 -44 67 -17 15 -14 7 12 -36
32 -53 33 -60 31 -140 -2 -45 -9 -100 -17 -122 -13 -37 -13 -36 -15 60 -1 102
-18 235 -21 164 l-1 -34 -36 56 c-31 50 -34 60 -23 80 11 21 11 22 -4 9 -15
-12 -23 -8 -69 35 l-52 48 -13 -54 c-7 -30 -16 -90 -19 -134 l-7 -79 -20 39
c-11 22 -22 34 -24 27 -2 -7 1 -22 7 -33 16 -30 23 -90 10 -90 -6 0 -10 6 -8
13 6 32 -72 187 -95 187 -5 0 0 -11 11 -25 20 -26 19 -62 -2 -78 -7 -6 -4 -7
7 -3 15 5 17 -2 18 -52 1 -31 1 -63 0 -71 -2 -7 2 -10 8 -7 6 4 10 -13 9 -46
0 -48 -1 -51 -14 -33 -17 22 -18 37 -4 53 6 6 7 9 3 6 -5 -3 -13 18 -19 48
l-12 53 -2 -40 c-1 -22 -2 -61 -2 -88 0 -35 -4 -47 -15 -47 -9 0 -13 6 -10 13
3 8 1 20 -4 28 -7 11 -9 9 -9 -8 0 -12 -5 -25 -12 -29 -8 -5 -9 0 -5 17 4 13
10 41 13 62 4 22 12 37 21 37 11 0 13 10 9 42 -3 24 -8 68 -11 98 -3 30 -7 62
-10 70 -4 14 31 95 53 124 5 6 21 43 36 81 23 63 26 84 26 198 0 122 -1 130
-30 187 -28 55 -39 65 -148 137 l-117 78 0 110 c-1 141 -19 199 -74 237 -55
39 -133 46 -182 17z m96 -9 c3 -5 12 -10 18 -10 7 0 6 4 -3 10 -13 8 -13 10 2
10 9 0 21 -8 27 -17 5 -10 18 -18 28 -18 24 0 66 -84 51 -102 -6 -7 -7 -13 -3
-13 4 0 1 -8 -6 -17 -13 -15 -12 -15 11 0 l26 16 1 -47 c1 -26 -1 -41 -4 -34
-2 6 -10 9 -16 5 -7 -4 -6 1 2 10 15 19 9 33 -8 22 -15 -9 -10 -64 5 -58 12 4
13 -61 1 -73 -3 -3 -2 -16 3 -28 6 -17 5 -23 -5 -23 -8 0 -12 5 -9 11 3 6 -3
2 -13 -10 -27 -31 -71 -57 -83 -49 -5 3 -10 2 -10 -4 0 -6 -13 -17 -30 -26
-33 -17 -44 -19 -36 -6 8 12 -51 20 -63 8 -7 -7 -15 -6 -26 3 -8 7 -15 9 -16
4 0 -5 -3 -1 -7 8 -6 14 -11 10 -28 -21 l-21 -39 23 -48 c16 -34 24 -68 25
-109 1 -55 14 -166 18 -155 7 17 6 88 -1 84 -4 -3 -8 31 -8 75 0 45 4 81 9 81
5 0 7 -26 4 -57 -3 -32 -2 -55 1 -52 8 7 14 47 15 94 1 22 4 26 10 16 7 -11
10 -9 13 10 1 13 10 24 18 24 16 0 17 -6 5 -44 -5 -16 -4 -21 4 -17 6 4 11 16
11 28 0 17 3 18 15 8 13 -10 12 -15 -3 -34 -9 -13 -24 -21 -33 -19 -20 6 -33
-12 -22 -29 12 -21 10 -82 -5 -105 -8 -12 -12 -28 -9 -35 4 -8 6 -7 6 4 1 9 7
21 14 25 17 10 31 63 18 63 -12 0 -8 30 6 38 6 4 19 21 29 37 20 31 57 45 47
17 -9 -22 14 -6 28 20 8 15 8 19 0 13 -14 -8 -8 33 9 64 9 17 8 21 -4 21 -10
0 -17 -15 -22 -45 -3 -25 -10 -48 -15 -51 -11 -7 -80 67 -75 81 2 6 -3 18 -12
27 -13 16 -13 16 11 5 14 -6 24 -14 22 -17 -2 -3 15 -4 37 -2 22 3 35 8 29 11
-15 10 34 32 53 25 9 -3 21 5 31 20 10 14 21 24 25 21 5 -3 11 -1 15 5 9 15
38 12 32 -3 -3 -8 1 -14 9 -14 7 0 10 5 6 11 -3 6 13 -6 37 -26 24 -21 47 -35
52 -33 4 3 10 1 14 -5 3 -5 0 -10 -7 -10 -7 -1 5 -7 27 -15 22 -8 45 -21 51
-30 6 -8 16 -15 23 -15 6 0 11 -6 11 -13 0 -15 -20 -37 -34 -37 -6 0 -5 5 2
12 7 7 12 16 12 22 0 5 -6 3 -12 -5 -25 -30 -106 -88 -112 -81 -4 3 -11 0 -16
-8 -8 -12 -10 -11 -11 5 -2 32 -29 -63 -44 -154 -14 -79 -14 -116 -1 -74 6 20
36 190 36 205 0 5 4 7 10 3 5 -3 7 -13 4 -23 -5 -14 -4 -15 5 -2 6 8 14 15 18
15 13 1 53 25 100 61 51 39 63 42 63 15 0 -11 6 -21 12 -23 22 -8 15 -278 -8
-312 -7 -10 -10 -25 -7 -32 3 -8 0 -14 -7 -14 -7 0 -10 -7 -6 -15 3 -9 -3 -23
-14 -32 -11 -10 -20 -22 -20 -28 0 -6 -8 -26 -18 -45 -20 -38 -37 -104 -24
-96 4 2 8 -3 9 -12 1 -9 3 -39 5 -67 2 -27 -1 -56 -6 -64 -9 -12 -8 -13 3 -6
11 6 13 4 8 -9 -4 -10 -7 -21 -7 -26 0 -5 -10 -12 -21 -15 -15 -5 -18 -9 -9
-15 9 -5 9 -9 1 -14 -6 -4 -19 0 -28 9 -12 13 -18 14 -24 4 -4 -7 -5 -17 -2
-22 3 -5 9 -4 13 3 8 13 20 -10 20 -38 0 -15 -2 -15 -10 -2 -5 8 -10 10 -10 4
0 -7 -20 -11 -52 -10 -40 1 -52 4 -50 15 3 12 1 12 -13 1 -12 -10 -57 -14
-163 -15 -81 -1 -153 0 -159 3 -18 6 -16 32 1 32 25 0 56 65 49 105 -3 19 -10
35 -15 35 -5 0 -4 9 2 19 15 29 12 37 -6 15 -8 -10 -13 -13 -9 -6 3 6 1 12 -4
12 -6 0 -11 7 -11 15 0 8 -5 15 -12 15 -6 0 -3 7 8 16 18 14 18 15 -4 4 -12
-6 -27 -8 -33 -4 -6 3 -17 -2 -25 -12 -9 -11 -13 -13 -9 -6 7 13 -11 17 -19 3
-6 -8 -99 9 -111 21 -9 9 -65 -9 -86 -28 -11 -10 -19 -24 -19 -33 0 -10 -11
-4 -31 19 -28 30 -30 36 -19 54 13 21 13 21 -9 1 -19 -16 -24 -17 -31 -5 -6 8
-10 21 -10 28 0 6 -4 12 -9 12 -10 0 -7 32 4 49 3 5 0 13 -6 16 -6 4 -9 31 -8
64 1 32 -1 63 -5 69 -4 7 -2 12 4 12 7 0 10 7 6 15 -9 24 4 45 28 46 19 0 19
1 2 8 -17 6 -17 9 -3 23 9 9 13 18 10 22 -3 3 8 29 25 57 18 27 32 55 32 60 0
5 4 9 10 9 5 0 15 18 21 40 7 22 16 40 21 40 4 0 8 8 8 18 0 9 5 24 10 32 7
12 11 10 20 -10 10 -24 10 -24 6 -2 -6 29 13 84 25 76 5 -3 9 -1 9 3 0 5 20
19 44 30 33 17 46 19 55 10 9 -9 10 -7 5 8 -7 18 -6 19 11 5 10 -8 16 -10 12
-3 -5 7 2 14 15 18 13 4 31 14 41 23 16 14 19 13 42 -8 14 -13 28 -20 32 -17
3 4 -2 13 -11 20 -10 7 -20 27 -22 43 -2 16 -10 46 -19 67 -10 24 -12 44 -7
55 5 9 7 31 5 49 -2 30 -1 32 35 35 l37 4 -35 11 c-32 10 -33 11 -9 12 33 1
58 -24 41 -41 -7 -7 -12 -22 -12 -35 0 -13 -3 -23 -7 -23 -19 -1 -43 -29 -37
-43 4 -12 12 -13 37 -6 18 5 56 9 84 9 45 0 53 -3 53 -19 0 -10 -7 -22 -16
-25 -9 -3 -14 -12 -11 -19 2 -6 -3 -17 -10 -22 -12 -9 -10 -11 6 -12 12 -1 21
2 21 7 0 5 6 7 13 4 10 -3 13 10 12 57 0 51 -3 63 -17 65 -10 1 -18 -2 -18 -8
0 -6 7 -8 15 -4 8 3 15 1 15 -4 0 -5 -11 -9 -24 -8 -15 1 -22 7 -19 15 3 7 1
13 -5 13 -6 0 -8 9 -5 20 3 12 -1 22 -11 26 -9 3 -13 11 -9 18 4 6 -2 4 -12
-4 -18 -14 -18 -15 3 -18 12 -2 22 -8 22 -14 0 -5 -7 -8 -15 -5 -8 4 -17 2
-21 -4 -11 -19 -35 11 -24 31 6 10 10 25 10 33 0 19 -54 41 -77 33 -14 -6 -16
-5 -5 5 6 7 12 21 12 31 0 10 4 18 9 18 5 0 12 9 16 19 13 41 112 80 130 51z
m-37 -252 c3 -15 -4 -18 -37 -18 -23 0 -41 5 -41 10 0 6 5 10 11 10 5 0 8 4 5
8 -2 4 10 8 27 7 22 0 33 -5 35 -17z m-88 -12 c0 -3 -4 -8 -10 -11 -5 -3 -10
-1 -10 4 0 6 5 11 10 11 6 0 10 -2 10 -4z m-30 -194 c0 -4 -6 -14 -12 -21 -7
-8 -8 -12 -3 -9 6 3 24 0 42 -6 26 -9 30 -14 20 -26 -7 -8 -24 -21 -39 -27
-27 -12 -28 -12 -28 17 0 17 -4 30 -10 30 -14 0 -13 23 2 38 14 14 28 16 28 4z
m55 -11 c8 -14 -10 -22 -30 -15 -13 5 -14 8 -3 15 17 11 26 11 33 0z m445
-115 c0 -3 -20 -19 -45 -37 -45 -32 -81 -47 -69 -28 3 5 9 7 13 5 4 -3 25 11
46 29 37 32 55 42 55 31z m-425 -36 c3 -5 -1 -10 -9 -10 -9 0 -16 5 -16 10 0
6 4 10 9 10 6 0 13 -4 16 -10z m685 -492 c29 -36 31 -42 20 -64 -7 -13 -17
-21 -21 -18 -5 3 -6 -1 -3 -9 3 -8 1 -18 -4 -21 -6 -3 -8 -15 -5 -25 3 -10 -1
-29 -8 -42 -14 -28 -21 -169 -8 -169 5 0 9 4 9 8 0 5 7 9 15 9 23 0 18 -12
-10 -25 -35 -16 -35 -16 -36 21 0 17 -4 41 -9 52 -7 18 -10 16 -24 -17 -9 -21
-16 -44 -16 -53 0 -8 -4 -15 -10 -15 -17 0 -11 25 24 91 33 63 51 115 47 133
-1 5 3 22 8 38 6 16 6 26 1 23 -5 -3 -14 -22 -20 -43 -16 -53 -44 -112 -53
-112 -4 0 0 16 8 36 8 20 15 54 15 76 0 21 5 70 11 108 13 78 20 80 69 18z
m-1599 -119 l19 -38 -27 -40 -26 -41 -19 30 c-21 36 -22 46 -7 106 10 37 14
42 26 32 8 -6 23 -29 34 -49z m1655 -9 c-3 -19 -7 -41 -8 -47 -3 -22 -18 -14
-19 10 -2 31 -2 30 6 56 5 16 4 21 -4 17 -13 -8 -14 -4 -4 20 12 31 35 -15 29
-56z m-1576 9 c-7 -11 -14 -18 -17 -15 -3 3 0 12 7 21 18 21 23 19 10 -6z
m624 -9 c4 -5 22 -4 39 1 49 14 51 12 77 -38 31 -63 32 -74 9 -80 -21 -6 -25
-18 -9 -28 24 -15 -22 -28 -50 -14 -7 3 -23 7 -37 8 -7 0 -13 9 -13 18 0 13
-3 14 -12 5 -8 -8 -15 -9 -25 0 -11 8 -12 7 -7 -5 3 -9 25 -22 48 -28 67 -18
69 -19 63 -25 -12 -12 -67 -15 -67 -3 0 7 -3 10 -6 6 -3 -3 -15 3 -27 13 -11
11 -24 17 -29 14 -13 -8 0 -22 39 -43 l36 -18 -26 -7 c-18 -4 -40 0 -66 14
-37 19 -81 66 -81 88 0 6 -12 24 -26 41 -20 24 -23 34 -14 50 21 40 51 52 115
45 33 -4 64 -10 69 -14z m721 -31 c20 -59 28 -158 17 -190 -6 -15 -12 11 -20
87 -6 60 -14 119 -18 132 -13 45 5 20 21 -29z m284 -14 c4 -5 8 -26 9 -45 1
-19 -1 -29 -4 -22 -8 18 -34 15 -34 -5 0 -25 -13 -6 -16 24 -4 37 5 65 18 57
7 -4 8 -2 4 4 -4 7 -4 18 1 25 5 8 9 6 11 -8 2 -11 7 -24 11 -30z m671 24 c0
-15 -4 -19 -16 -15 -13 5 -14 3 -6 -7 7 -8 7 -18 2 -27 -6 -8 -10 -25 -10 -38
0 -14 -4 -21 -11 -16 -16 9 -4 81 17 105 22 24 24 24 24 -2z m-758 -49 c3 -19
0 -53 -6 -75 -11 -38 -12 -36 -11 42 0 83 8 98 17 33z m188 -7 c0 -13 4 -22
10 -18 5 3 7 13 4 23 -4 13 -3 14 4 4 5 -7 7 -25 4 -39 -4 -20 -2 -24 8 -18 9
6 11 4 5 -5 -12 -19 -13 -60 -1 -60 13 0 -2 -14 -18 -16 -10 -1 -15 18 -19 69
-4 40 -11 73 -17 75 -5 2 -10 8 -10 13 0 4 7 6 15 3 8 -4 15 -17 15 -31z m587
-53 c0 -44 -4 -80 -8 -80 -5 0 -6 -7 -3 -15 4 -8 2 -15 -4 -15 -12 0 -21 81
-15 131 3 22 10 39 15 39 5 0 6 5 3 10 -3 6 -2 10 2 10 5 0 9 -36 10 -80z
m-2105 39 c-15 -134 -15 -135 3 -111 9 12 14 31 10 41 -3 11 -3 31 1 46 11 43
25 14 29 -56 3 -46 1 -55 -5 -34 l-8 30 -2 -30 c-1 -26 -3 -27 -10 -10 -8 19
-9 19 -9 -2 -1 -13 -6 -23 -11 -23 -26 0 -47 129 -27 162 16 24 33 17 29 -13z
m1914 -51 c4 -32 12 -65 19 -71 13 -13 9 -37 -6 -37 -5 0 -9 11 -9 25 0 14 -4
25 -8 25 -5 0 -9 20 -9 44 0 23 -6 52 -12 64 -15 28 -14 37 4 22 8 -6 17 -39
21 -72z m-1862 56 c10 -25 -1 -29 -14 -5 -6 12 -7 21 -1 21 5 0 12 -7 15 -16z
m1671 -65 l4 -64 -13 40 -13 40 -4 -37 c-4 -31 -1 -38 18 -47 13 -6 23 -16 23
-22 0 -7 -8 -5 -20 6 -20 18 -21 18 -34 -1 -13 -16 -13 -13 -9 31 3 28 12 60
20 73 8 13 11 32 7 45 -4 16 -3 19 5 11 6 -6 13 -39 16 -75z m246 47 c8 5 8 1
0 -14 -14 -26 -14 -45 -1 -37 12 7 12 -19 0 -55 l-8 -25 -1 27 c-1 14 -4 35
-8 45 -6 16 -8 15 -14 -7 -3 -14 -5 2 -4 35 3 74 4 76 16 47 5 -13 14 -20 20
-16z m-2282 -46 c0 -10 -3 -8 -9 5 -6 13 -7 -3 -4 -45 3 -53 2 -60 -6 -35 -6
17 -14 56 -19 88 l-8 58 23 -28 c13 -15 23 -35 23 -43z m157 -2 c-2 -35 -5
-68 -5 -74 -1 -7 -8 -14 -16 -18 -12 -4 -15 3 -14 37 0 33 2 38 9 22 9 -20 9
-20 11 0 1 11 3 25 4 30 2 6 3 22 4 38 0 15 3 27 7 27 3 0 3 -28 0 -62z m277
45 c-7 -3 -10 -10 -7 -18 3 -7 1 -16 -5 -20 -7 -4 -11 3 -11 18 0 28 9 39 23
30 8 -5 7 -8 0 -10z m-330 -27 c-3 -12 -7 -35 -7 -53 -1 -35 -16 -59 -16 -25
0 12 -4 22 -10 22 -13 0 -13 36 -1 59 14 26 43 23 34 -3z m1503 -54 c-13 -12
-17 8 -9 44 l8 39 3 -39 c2 -21 1 -41 -2 -44z m76 13 c-3 -24 -9 -35 -17 -31
-8 3 -11 -2 -8 -15 3 -10 1 -19 -4 -19 -6 0 -9 12 -8 27 3 42 4 45 17 37 7 -5
8 -3 3 6 -5 8 -9 24 -10 37 -1 20 1 20 15 8 11 -10 15 -26 12 -50z m51 -26
c-7 -38 -19 -45 -25 -14 -3 13 -2 22 3 20 4 -3 4 8 -1 25 -5 17 -6 38 -3 47
10 25 33 -43 26 -78z m-207 69 c4 -7 3 -9 -1 -5 -5 4 -15 -3 -22 -15 -12 -22
-12 -22 -13 -2 0 33 22 46 36 22z m620 -10 c-3 -13 -5 -31 -5 -40 -1 -24 -18
-23 -26 2 -7 21 10 60 25 60 6 0 8 -10 6 -22z m-1880 -43 c6 -20 8 -37 4 -40
-8 -5 -19 23 -25 64 -5 31 6 19 21 -24z m1558 -25 c4 -29 3 -38 -3 -25 -8 20
-8 20 -13 0 -3 -11 -5 7 -6 39 0 66 12 58 22 -14z m-1754 -12 c0 -20 -17 -4
-28 25 l-12 32 20 -25 c11 -14 20 -28 20 -32z m1255 13 c-7 -23 -25 -29 -25
-8 0 14 21 39 28 33 2 -3 1 -14 -3 -25z m593 5 c-1 -14 -5 -23 -9 -20 -4 2 -6
12 -4 22 5 23 4 22 10 22 3 0 4 -11 3 -24z m258 -12 c-4 -9 -9 -15 -11 -12 -3
3 -3 13 1 22 4 9 9 15 11 12 3 -3 3 -13 -1 -22z m-1782 1 c3 -8 1 -15 -4 -15
-6 0 -10 7 -10 15 0 8 2 15 4 15 2 0 6 -7 10 -15z m1149 -15 c-3 -12 -8 -19
-11 -16 -5 6 5 36 12 36 2 0 2 -9 -1 -20z m597 5 c0 -8 -4 -15 -10 -15 -5 0
-10 7 -10 15 0 8 5 15 10 15 6 0 10 -7 10 -15z m170 5 c0 -5 -2 -10 -4 -10 -3
0 -8 5 -11 10 -3 6 -1 10 4 10 6 0 11 -4 11 -10z"/>
<path d="M1248 1453 c7 -3 16 -2 19 1 4 3 -2 6 -13 5 -11 0 -14 -3 -6 -6z"/>
<path d="M1305 1409 c-30 -7 -30 -7 7 -8 20 0 40 -6 44 -12 5 -8 -7 -10 -40
-7 -32 4 -44 2 -37 -5 15 -15 80 -14 86 1 7 19 7 20 -12 30 -10 5 -31 5 -48 1z"/>
<path d="M1356 1342 c-2 -4 -1 -14 4 -22 7 -11 9 -9 7 8 -1 24 -3 26 -11 14z"/>
<path d="M1407 1303 c-12 -12 -7 -31 9 -37 14 -5 15 -4 5 8 -7 8 -10 20 -6 26
7 11 2 14 -8 3z"/>
<path d="M1365 1242 c-3 -9 0 -12 8 -9 8 3 20 1 28 -4 11 -7 10 -9 -6 -10 -11
-1 -23 -1 -27 0 -5 0 -8 -6 -8 -14 0 -8 5 -15 10 -15 6 0 10 5 10 11 0 6 6 9
13 6 6 -2 11 -10 9 -16 -1 -7 1 -10 6 -7 7 4 8 39 2 56 -1 3 -2 7 -2 10 1 12
-38 5 -43 -8z"/>
<path d="M1202 1218 c7 -19 31 -21 53 -3 19 14 18 15 -8 5 -35 -13 -40 -13
-32 0 3 6 1 10 -5 10 -7 0 -10 -6 -8 -12z"/>
<path d="M1165 1205 c4 -11 9 -27 12 -35 2 -9 14 -22 26 -29 21 -13 21 -13 5
6 -10 11 -18 24 -18 29 0 6 -7 19 -16 30 -15 19 -16 19 -9 -1z"/>
<path d="M1226 1163 c-3 -3 -3 -10 0 -14 7 -12 44 -12 44 0 0 10 -36 21 -44
14z"/>
<path d="M1346 1082 c-3 -5 1 -9 9 -9 8 0 12 4 9 9 -3 4 -7 8 -9 8 -2 0 -6 -4
-9 -8z"/>
<path d="M1274 1034 c-10 -8 -14 -13 -9 -11 12 6 36 -18 28 -27 -4 -3 -1 -6 5
-6 15 0 16 17 2 25 -16 10 -12 25 5 19 8 -4 15 -1 15 5 0 16 -23 14 -46 -5z"/>
<path d="M1370 1010 c0 -5 5 -10 11 -10 5 0 7 5 4 10 -3 6 -8 10 -11 10 -2 0
-4 -4 -4 -10z"/>
<path d="M1612 987 c-17 -18 -19 -24 -7 -24 8 0 13 3 10 5 -3 3 2 14 12 24 24
27 10 22 -15 -5z"/>
<path d="M1530 971 c-7 -13 -7 -27 -2 -37 8 -15 10 -15 15 0 4 10 3 15 -3 11
-14 -9 -12 9 2 23 6 6 9 14 6 18 -4 3 -11 -4 -18 -15z"/>
<path d="M922 930 c0 -14 2 -19 5 -12 2 6 2 18 0 25 -3 6 -5 1 -5 -13z"/>
<path d="M1272 893 l-22 -48 22 29 c19 25 34 66 25 66 -2 0 -13 -21 -25 -47z"/>
<path d="M890 900 c-9 -6 -10 -10 -3 -10 6 0 15 5 18 10 8 12 4 12 -15 0z"/>
<path d="M1664 895 c-10 -8 -14 -14 -9 -15 15 0 40 18 34 24 -3 3 -14 -1 -25
-9z"/>
<path d="M1689 873 c-13 -16 -12 -17 4 -4 16 13 21 21 13 21 -2 0 -10 -8 -17
-17z"/>
<path d="M882 860 c0 -14 2 -19 5 -12 2 6 2 18 0 25 -3 6 -5 1 -5 -13z"/>
<path d="M1620 864 c0 -8 5 -12 10 -9 6 4 8 11 5 16 -9 14 -15 11 -15 -7z"/>
<path d="M1580 850 c-9 -6 -10 -10 -3 -10 6 0 15 5 18 10 8 12 4 12 -15 0z"/>
<path d="M910 838 c0 -7 5 -20 10 -28 8 -12 10 -9 10 13 0 15 -4 27 -10 27 -5
0 -10 -6 -10 -12z"/>
<path d="M1616 820 c-51 -39 -40 -38 21 0 26 17 40 30 32 30 -7 0 -32 -14 -53
-30z"/>
<path d="M1545 789 c-11 -16 -1 -19 13 -3 7 8 8 14 3 14 -5 0 -13 -5 -16 -11z"/>
<path d="M895 751 c8 -26 -4 -73 -17 -65 -7 4 -8 -5 -3 -26 5 -22 4 -30 -3
-26 -6 3 -13 2 -17 -4 -3 -6 4 -10 17 -10 17 0 23 6 24 23 0 12 4 46 9 75 5
38 4 52 -4 52 -8 0 -10 -8 -6 -19z"/>
<path d="M851 744 c0 -11 3 -14 6 -6 3 7 2 16 -1 19 -3 4 -6 -2 -5 -13z"/>
<path d="M1140 689 c0 -5 5 -7 10 -4 6 3 10 8 10 11 0 2 -4 4 -10 4 -5 0 -10
-5 -10 -11z"/>
<path d="M1061 674 c0 -11 3 -14 6 -6 3 7 2 16 -1 19 -3 4 -6 -2 -5 -13z"/>
<path d="M1524 664 l-29 -25 27 12 c15 6 29 18 32 25 7 19 3 18 -30 -12z"/>
<path d="M1671 667 c-7 -10 -10 -17 -7 -17 4 0 2 -10 -5 -22 l-11 -23 22 21
c12 12 20 30 18 39 -3 17 -4 17 -17 2z"/>
<path d="M782 651 c-11 -6 -10 -10 5 -16 15 -6 12 -9 -17 -20 l-35 -13 43 3
c46 3 102 -13 102 -28 0 -8 -19 -7 -59 4 -7 2 -16 -3 -18 -11 -4 -13 -3 -13 6
0 9 12 11 12 16 -2 7 -18 46 -20 57 -3 15 20 9 46 -9 44 -24 -4 -85 29 -78 41
7 12 4 12 -13 1z"/>
<path d="M1380 650 c0 -5 5 -10 11 -10 5 0 7 5 4 10 -3 6 -8 10 -11 10 -2 0
-4 -4 -4 -10z"/>
<path d="M1620 635 c-14 -16 -10 -18 14 -9 9 3 16 10 16 15 0 14 -16 11 -30
-6z"/>
<path d="M1712 645 c4 -4 -5 -20 -20 -36 -20 -21 -40 -31 -81 -36 -35 -5 -56
-13 -58 -23 -3 -11 -2 -12 4 -2 6 7 25 11 51 9 22 -2 39 0 36 5 -3 4 1 8 9 8
14 0 42 22 65 52 11 13 11 18 0 24 -7 4 -10 4 -6 -1z"/>
<path d="M1461 624 c0 -11 3 -14 6 -6 3 7 2 16 -1 19 -3 4 -6 -2 -5 -13z"/>
<path d="M1423 595 c0 -22 2 -30 4 -17 2 12 2 30 0 40 -3 9 -5 -1 -4 -23z"/>
<path d="M1518 623 c12 -2 32 -2 45 0 12 2 2 4 -23 4 -25 0 -35 -2 -22 -4z"/>
<path d="M1121 607 c-1 -21 21 -18 27 4 3 12 2 12 -6 0 -8 -11 -10 -11 -15 0
-4 10 -6 8 -6 -4z"/>
<path d="M1382 590 c0 -19 2 -27 5 -17 2 9 2 25 0 35 -3 9 -5 1 -5 -18z"/>
<path d="M1460 583 c0 -26 12 -30 30 -9 6 8 24 17 38 19 25 4 24 4 -5 6 -17 0
-35 -4 -39 -10 -4 -8 -9 -7 -15 2 -6 10 -9 8 -9 -8z"/>
<path d="M730 573 c0 -5 4 -14 9 -21 7 -11 9 -11 14 1 3 8 3 18 0 21 -9 8 -23
7 -23 -1z"/>
<path d="M1095 560 c-3 -5 -1 -10 4 -10 6 0 11 5 11 10 0 6 -2 10 -4 10 -3 0
-8 -4 -11 -10z"/>
<path d="M882 540 c-10 -17 -9 -27 8 -60 25 -48 34 -53 16 -7 -7 17 -11 44
-10 60 3 32 2 33 -14 7z"/>
<path d="M1444 528 l-19 -23 23 19 c21 18 27 26 19 26 -2 0 -12 -10 -23 -22z"/>
<path d="M1510 542 c0 -11 27 -42 37 -42 3 0 -2 10 -13 23 -10 12 -20 24 -21
26 -2 2 -3 -1 -3 -7z"/>
<path d="M1101 522 c-1 -7 -6 -10 -13 -6 -7 4 -8 3 -4 -4 8 -13 56 -12 56 1 0
5 -6 7 -14 4 -8 -3 -17 -1 -20 6 -3 9 -5 8 -5 -1z"/>
<path d="M795 500 c-9 -15 13 -40 29 -34 11 4 76 -48 76 -61 0 -2 -10 -1 -22
1 l-23 5 23 -10 c13 -6 22 -19 22 -32 0 -33 11 -16 16 25 3 27 0 36 -10 36 -8
0 -25 13 -38 29 -18 21 -29 26 -40 20 -11 -6 -18 -4 -22 7 -5 12 -2 15 9 10 9
-3 13 -2 10 4 -8 13 -22 13 -30 0z"/>
<path d="M1450 503 c0 -4 5 -15 10 -23 8 -13 10 -13 10 2 0 9 -4 20 -10 23 -5
3 -10 3 -10 -2z"/>
<path d="M1616 491 c-20 -60 -115 -159 -138 -145 -7 4 -24 9 -37 10 -20 2 -22
1 -11 -6 11 -7 2 -10 -31 -10 -39 0 -49 -4 -64 -26 l-17 -27 23 17 c13 9 40
16 61 16 21 0 38 5 38 10 0 6 10 10 22 10 l22 0 -22 -20 c-12 -11 -24 -20 -27
-20 -3 0 -28 -13 -56 -29 -37 -21 -46 -30 -34 -35 9 -3 14 -2 11 2 -7 12 63
44 76 36 6 -4 8 -3 5 3 -4 6 5 15 18 21 14 7 25 16 25 22 0 6 5 8 10 5 6 -3
10 -1 10 4 0 6 6 11 14 11 7 0 21 11 31 24 11 15 25 22 34 19 13 -5 14 -3 4 7
-10 10 -6 21 18 51 17 22 29 47 27 56 -3 15 -6 13 -12 -6z"/>
<path d="M1471 449 c-23 -29 -39 -54 -36 -57 3 -3 6 -3 8 -1 1 2 20 26 41 52
21 26 36 50 33 53 -2 3 -23 -18 -46 -47z"/>
<path d="M760 486 c0 -2 8 -10 18 -17 15 -13 16 -12 3 4 -13 16 -21 21 -21 13z"/>
<path d="M1323 455 c0 -8 4 -12 9 -9 4 3 8 9 8 15 0 5 -4 9 -8 9 -5 0 -9 -7
-9 -15z"/>
<path d="M1538 463 c7 -3 16 -2 19 1 4 3 -2 6 -13 5 -11 0 -14 -3 -6 -6z"/>
<path d="M1020 450 c8 -5 20 -10 25 -10 6 0 3 5 -5 10 -8 5 -19 10 -25 10 -5
0 -3 -5 5 -10z"/>
<path d="M1295 450 c-3 -5 -1 -10 4 -10 6 0 11 5 11 10 0 6 -2 10 -4 10 -3 0
-8 -4 -11 -10z"/>
<path d="M1377 421 c-10 -14 -10 -14 4 -4 9 7 18 10 21 7 3 -3 8 -1 12 4 9 16
-24 9 -37 -7z"/>
<path d="M1280 415 c-11 -13 -9 -20 9 -38 11 -13 21 -28 21 -35 0 -6 5 -14 10
-17 17 -11 11 11 -15 49 -22 33 -23 40 -2 37 4 0 7 4 7 9 0 15 -16 12 -30 -5z"/>
<path d="M1525 420 c-3 -5 -1 -10 4 -10 6 0 11 5 11 10 0 6 -2 10 -4 10 -3 0
-8 -4 -11 -10z"/>
<path d="M1100 409 c0 -5 5 -7 10 -4 6 3 10 8 10 11 0 2 -4 4 -10 4 -5 0 -10
-5 -10 -11z"/>
<path d="M1022 370 c12 -19 28 -27 28 -14 0 7 -27 34 -34 34 -4 0 -1 -9 6 -20z"/>
<path d="M1245 361 c23 -42 55 -87 55 -76 0 6 -9 21 -20 35 -11 14 -20 34 -20
46 0 11 -6 21 -14 21 -13 0 -13 -4 -1 -26z"/>
<path d="M1428 373 c7 -3 16 -2 19 1 4 3 -2 6 -13 5 -11 0 -14 -3 -6 -6z"/>
<path d="M980 366 c0 -2 8 -10 18 -17 15 -13 16 -12 3 4 -13 16 -21 21 -21 13z"/>
<path d="M1212 296 c7 -8 15 -12 17 -11 5 6 -10 25 -20 25 -5 0 -4 -6 3 -14z"/>
<path d="M1507 100 c-26 -16 -27 -18 -8 -23 12 -3 21 -1 21 4 0 5 7 9 15 9 8
0 15 4 15 9 0 18 -15 18 -43 1z"/>
<path d="M1240 1280 c0 -5 5 -10 11 -10 5 0 7 5 4 10 -3 6 -8 10 -11 10 -2 0
-4 -4 -4 -10z"/>
<path d="M1158 1003 c6 -2 18 -2 25 0 6 3 1 5 -13 5 -14 0 -19 -2 -12 -5z"/>
<path d="M1050 262 c0 -13 39 -42 45 -33 2 5 -6 16 -20 25 -14 9 -25 13 -25 8z"/>
<path d="M932 234 c10 -10 20 -15 24 -12 3 4 -5 12 -18 18 -22 12 -22 12 -6
-6z"/>
<path d="M1000 241 c0 -6 5 -11 10 -11 6 0 10 -6 10 -13 0 -7 16 -21 35 -31
34 -19 37 -19 53 -2 16 16 16 17 -9 11 -21 -5 -34 0 -63 25 -20 18 -36 27 -36
21z"/>
<path d="M887 198 c17 -18 29 -38 26 -45 -2 -6 7 -19 21 -28 14 -10 24 -21 21
-25 -2 -4 7 -12 21 -19 41 -18 52 -13 17 9 -18 11 -33 24 -33 29 0 5 -9 11
-20 14 -11 3 -20 10 -20 17 0 6 4 9 8 6 5 -3 9 1 9 9 0 8 -5 11 -10 8 -6 -4
-8 0 -4 10 3 9 3 16 -1 16 -22 -4 -31 3 -26 19 5 14 4 15 -5 2 -7 -10 -11 -11
-11 -2 0 6 -5 12 -12 12 -7 0 2 -15 19 -32z"/>
<path d="M958 163 c7 -3 16 -2 19 1 4 3 -2 6 -13 5 -11 0 -14 -3 -6 -6z"/>
<path d="M2006 227 c3 -10 9 -15 12 -12 3 3 0 11 -7 18 -10 9 -11 8 -5 -6z"/>
<path d="M630 150 c0 -11 2 -20 4 -20 2 0 6 9 9 20 3 11 1 20 -4 20 -5 0 -9
-9 -9 -20z"/>
<path d="M2170 1540 c-9 -6 -10 -10 -3 -10 6 0 15 5 18 10 8 12 4 12 -15 0z"/>
<path d="M122 1480 c0 -14 2 -19 5 -12 2 6 2 18 0 25 -3 6 -5 1 -5 -13z"/>
<path d="M1470 1487 c0 -20 32 -46 37 -31 4 12 125 9 193 -5 40 -8 80 -4 80 8
0 7 -63 16 -185 27 -22 2 -59 6 -82 9 -33 5 -43 3 -43 -8z"/>
<path d="M1090 1480 c-15 -10 -124 -26 -126 -19 0 2 -8 -2 -17 -10 -10 -7 -17
-11 -17 -8 0 7 -70 -9 -106 -24 -16 -7 -31 -13 -34 -14 -3 -1 -23 -9 -44 -18
-22 -10 -50 -20 -63 -23 -13 -4 -26 -10 -29 -15 -3 -5 -14 -9 -25 -9 -10 0
-19 -4 -19 -9 0 -5 -13 -14 -29 -21 -16 -6 -37 -20 -47 -31 -11 -12 -25 -17
-38 -13 -15 4 -17 3 -7 -4 11 -8 9 -12 -10 -22 -13 -7 -26 -16 -29 -19 -3 -4
-20 -19 -38 -34 -59 -48 -191 -226 -208 -280 -4 -12 -10 -24 -14 -27 -11 -7
-19 -100 -9 -100 5 0 9 11 9 24 0 57 129 254 228 348 50 48 147 118 162 118 5
0 10 4 12 9 4 13 167 91 190 91 10 0 18 4 18 9 0 5 19 12 43 16 23 4 47 10 52
14 11 6 109 27 185 37 41 6 59 17 60 37 0 4 -5 7 -11 7 -5 0 -7 -6 -3 -12 6
-10 5 -10 -7 -1 -9 7 -20 9 -29 3z"/>
<path d="M2310 1486 c0 -2 7 -7 16 -10 8 -3 12 -2 9 4 -6 10 -25 14 -25 6z"/>
<path d="M1780 1445 c-7 -8 -6 -12 3 -12 6 0 27 -3 45 -7 43 -10 41 6 -3 20
-26 8 -37 8 -45 -1z"/>
<path d="M1875 1430 c-11 -18 5 -31 26 -20 11 6 19 7 19 1 0 -13 58 -32 65
-20 5 8 -10 13 -18 7 -2 -2 -15 5 -30 15 -15 9 -27 15 -27 11 0 -4 -6 -1 -14
5 -10 8 -16 9 -21 1z"/>
<path d="M132 1400 c0 -14 2 -19 5 -12 2 6 2 18 0 25 -3 6 -5 1 -5 -13z"/>
<path d="M2013 1394 c-3 -8 -1 -20 4 -25 7 -7 12 -5 17 6 4 11 2 14 -6 9 -8
-5 -9 -2 -5 9 3 10 4 17 1 17 -2 0 -7 -7 -11 -16z"/>
<path d="M2500 1406 c0 -2 7 -7 16 -10 8 -3 12 -2 9 4 -6 10 -25 14 -25 6z"/>
<path d="M2054 1362 c2 -4 19 -8 38 -9 30 -1 31 -1 8 7 -33 11 -52 12 -46 2z"/>
<path d="M1060 1351 c0 -5 -12 -12 -27 -14 -16 -3 -8 -4 17 -3 25 0 44 6 43
11 -3 13 -33 19 -33 6z"/>
<path d="M1851 1351 c-20 -13 -45 -129 -31 -146 8 -9 -2 -8 -27 4 -21 10 -53
22 -71 26 -19 4 -30 11 -26 17 4 6 2 8 -3 5 -6 -4 -46 2 -88 13 -85 22 -105
24 -105 13 0 -5 50 -20 111 -36 61 -15 167 -50 235 -78 101 -42 122 -54 113
-65 -9 -11 -14 -10 -28 7 -23 28 -49 15 -60 -30 -21 -83 -21 -89 -5 -105 19
-20 28 -20 44 -1 11 14 15 13 28 -6 9 -13 21 -19 33 -16 11 3 22 1 25 -5 3 -5
15 -7 26 -5 10 3 31 -1 46 -9 32 -16 88 -19 97 -4 4 7 17 1 32 -15 15 -14 37
-25 52 -25 19 0 40 -13 67 -42 45 -48 140 -160 166 -198 14 -20 16 -21 11 -5
-8 28 -57 105 -65 105 -5 0 -8 7 -8 15 0 8 -7 15 -15 15 -8 0 -15 5 -15 11 0
6 -22 32 -48 58 -44 43 -47 50 -35 67 7 10 11 30 8 44 -3 14 -1 32 5 40 6 10
3 21 -12 37 -25 27 -55 29 -86 7 -12 -8 -22 -10 -22 -5 0 18 -47 42 -87 46
-21 1 -46 6 -55 10 -10 4 -25 5 -32 2 -9 -4 -29 8 -48 26 -18 17 -37 30 -42
29 -4 -2 -19 4 -32 13 -13 8 -31 15 -40 15 -15 0 -15 3 3 23 26 28 41 121 23
142 -14 17 -20 18 -39 6z m39 -19 c0 -5 -5 -34 -11 -65 -9 -45 -16 -57 -30
-57 -22 0 -24 21 -8 86 8 32 16 44 30 44 11 0 19 -4 19 -8z m37 -249 l-4 -24
21 20 c25 24 56 28 56 8 0 -8 -9 -22 -20 -32 -17 -16 -18 -20 -5 -44 15 -31 5
-57 -19 -48 -8 3 -18 18 -22 32 -7 30 -20 33 -27 5 -3 -11 -13 -20 -22 -20
-15 0 -17 7 -11 52 9 65 21 89 42 81 10 -4 14 -14 11 -30z m129 -7 c3 -7 -1
-37 -9 -67 -9 -38 -19 -55 -32 -58 -16 -3 -17 2 -12 52 4 30 10 62 13 71 8 20
33 21 40 2z m111 -22 c43 -27 39 -90 -8 -115 -20 -10 -95 -4 -103 9 -5 9 16
103 27 120 9 14 50 7 84 -14z m-176 -31 c-8 -15 -10 -15 -11 -2 0 17 10 32 18
25 2 -3 -1 -13 -7 -23z m313 7 c5 -5 6 -16 2 -25 -5 -13 -10 -14 -27 -5 -30
17 -34 6 -4 -14 43 -28 28 -86 -22 -86 -31 0 -69 38 -54 53 9 9 17 8 31 -1 30
-19 38 -14 11 8 -12 11 -26 18 -31 15 -4 -2 -5 7 -2 21 8 45 63 64 96 34z"/>
<path d="M2110 1017 c0 -9 -3 -23 -6 -32 -5 -13 -2 -16 17 -13 18 2 24 9 24
28 0 16 -6 26 -17 28 -11 2 -18 -3 -18 -11z m22 -29 c-9 -9 -12 -7 -12 12 0
19 3 21 12 12 9 -9 9 -15 0 -24z"/>
<path d="M2600 1350 c0 -5 5 -10 11 -10 5 0 7 5 4 10 -3 6 -8 10 -11 10 -2 0
-4 -4 -4 -10z"/>
<path d="M133 1305 c0 -27 2 -38 4 -22 2 15 2 37 0 50 -2 12 -4 0 -4 -28z"/>
<path d="M1530 1330 c0 -13 5 -18 15 -14 12 5 13 10 4 20 -15 19 -19 18 -19
-6z"/>
<path d="M2116 1326 c21 -15 30 -14 19 3 -3 6 -14 11 -23 11 -13 0 -13 -2 4
-14z"/>
<path d="M2153 1326 c0 -8 5 -12 11 -10 16 5 49 -23 41 -35 -4 -8 -11 -6 -21
4 -24 24 -40 18 -73 -27 -34 -46 -35 -46 -22 -1 12 41 -6 69 -37 59 -12 -4
-22 -14 -22 -22 0 -8 -5 -14 -11 -14 -5 0 -8 4 -5 9 11 18 -6 41 -30 41 -28 0
-40 -23 -50 -99 -6 -44 -4 -50 15 -56 12 -4 28 -2 35 4 10 8 18 6 31 -9 10
-12 25 -18 33 -15 8 3 20 0 28 -6 9 -7 19 -7 31 -1 13 8 26 6 49 -9 26 -16 34
-17 48 -6 17 12 17 19 6 70 -12 52 -11 59 5 77 10 11 15 23 12 27 -4 3 -7 3
-7 -1 0 -4 -12 2 -26 13 -31 25 -41 26 -41 7z m-151 -33 c4 -36 26 -41 38 -9
5 14 14 26 20 26 19 0 22 -27 10 -84 -9 -45 -15 -56 -31 -56 -13 0 -19 7 -19
24 0 25 -21 48 -27 29 -2 -6 -10 -19 -18 -29 -10 -15 -16 -16 -26 -7 -9 9 -9
24 1 65 15 64 17 68 35 68 7 0 15 -12 17 -27z m190 -73 c10 -35 15 -67 12 -72
-8 -13 -30 -9 -44 8 -10 11 -23 14 -52 9 -30 -5 -38 -4 -38 8 0 21 80 119 94
114 6 -2 19 -32 28 -67z"/>
<path d="M2140 1204 c0 -8 5 -12 10 -9 6 4 8 11 5 16 -9 14 -15 11 -15 -7z"/>
<path d="M910 1320 c-22 -7 -21 -8 13 -9 20 -1 37 4 37 9 0 11 -14 11 -50 0z"/>
<path d="M990 1304 c-52 -7 -117 -20 -145 -28 -27 -8 -51 -13 -54 -10 -3 3 4
7 16 10 12 3 24 13 28 21 4 12 2 13 -7 6 -7 -6 -26 -14 -43 -18 -16 -4 -24
-10 -17 -12 25 -9 11 -21 -35 -31 -27 -5 -61 -10 -76 -10 -29 0 -70 -29 -62
-43 9 -14 -15 -21 -30 -9 -12 10 -21 6 -46 -19 -17 -17 -44 -38 -60 -47 -16
-8 -29 -19 -29 -25 0 -6 5 -7 12 -3 7 4 8 3 4 -5 -4 -6 -12 -9 -17 -5 -18 11
-151 -142 -202 -233 -7 -12 -21 -36 -32 -55 -18 -30 -20 -54 -21 -308 -2 -173
1 -260 6 -235 5 22 9 141 9 265 l1 226 46 74 c106 173 237 293 409 376 105 50
197 77 350 102 132 22 129 34 -5 16z m-361 -105 c-16 -10 -23 -4 -14 10 3 6
11 8 17 5 6 -4 5 -9 -3 -15z"/>
<path d="M850 1299 c0 -5 5 -7 10 -4 6 3 10 8 10 11 0 2 -4 4 -10 4 -5 0 -10
-5 -10 -11z"/>
<path d="M2246 1302 c-3 -5 8 -12 24 -14 17 -3 30 -1 30 4 0 4 -4 8 -9 8 -5 0
-16 3 -24 6 -8 3 -18 1 -21 -4z"/>
<path d="M1648 1293 c7 -3 16 -2 19 1 4 3 -2 6 -13 5 -11 0 -14 -3 -6 -6z"/>
<path d="M713 1273 c4 -3 -1 -12 -11 -19 -15 -12 -15 -13 5 -8 26 7 39 34 16
34 -9 0 -13 -3 -10 -7z"/>
<path d="M2227 1274 c-12 -12 -8 -43 7 -51 12 -6 13 -17 6 -48 -10 -45 2 -68
34 -63 14 2 24 15 31 42 7 22 17 42 24 44 9 3 11 -2 8 -14 -23 -76 -18 -87 44
-99 40 -7 65 11 55 42 -3 10 1 31 9 47 8 15 15 35 15 42 0 17 -40 34 -81 34
-17 0 -28 4 -25 8 2 4 -3 8 -12 8 -9 1 -37 4 -62 8 -25 4 -48 4 -53 0z m101
-26 c27 -10 24 -32 -4 -36 -15 -2 -23 -15 -30 -45 -6 -29 -15 -43 -28 -45 -17
-4 -18 1 -12 52 6 47 5 56 -8 56 -16 0 -22 21 -10 33 7 7 55 -1 92 -15z m115
-27 c16 -16 -3 -33 -29 -27 -13 4 -24 2 -24 -3 0 -5 9 -11 20 -14 29 -8 24
-27 -7 -28 l-28 -1 28 -11 c38 -15 32 -43 -8 -39 -56 5 -58 8 -51 62 10 78 14
83 54 76 19 -3 40 -10 45 -15z"/>
<path d="M2375 1270 c3 -5 8 -10 11 -10 2 0 4 5 4 10 0 6 -5 10 -11 10 -5 0
-7 -4 -4 -10z"/>
<path d="M570 1190 c0 -5 5 -10 11 -10 5 0 7 5 4 10 -3 6 -8 10 -11 10 -2 0
-4 -4 -4 -10z"/>
<path d="M2459 1178 c-6 -21 -5 -37 2 -32 5 3 7 9 4 14 -3 4 1 11 7 13 10 4
10 6 1 6 -7 1 -13 0 -14 -1z"/>
<path d="M2140 1106 c0 -2 7 -7 16 -10 8 -3 12 -2 9 4 -6 10 -25 14 -25 6z"/>
<path d="M2590 1030 c0 -6 7 -10 15 -10 8 0 15 2 15 4 0 2 -7 6 -15 10 -8 3
-15 1 -15 -4z"/>
<path d="M2615 1000 c3 -5 8 -10 11 -10 2 0 4 5 4 10 0 6 -5 10 -11 10 -5 0
-7 -4 -4 -10z"/>
<path d="M122 920 c0 -14 2 -19 5 -12 2 6 2 18 0 25 -3 6 -5 1 -5 -13z"/>
<path d="M2685 930 c3 -5 8 -10 11 -10 2 0 4 5 4 10 0 6 -5 10 -11 10 -5 0 -7
-4 -4 -10z"/>
<path d="M1994 882 c-21 -14 -22 -40 -3 -83 11 -24 22 -45 24 -47 9 -9 84 42
93 63 14 31 -6 60 -36 53 -12 -4 -26 0 -33 8 -13 15 -28 18 -45 6z m45 -27 c3
-17 1 -17 -12 -6 -9 7 -21 10 -27 6 -11 -7 -14 8 -3 19 13 12 38 1 42 -19z
m60 -17 c0 -13 -3 -17 -6 -10 -6 15 -43 16 -43 1 0 -5 4 -8 9 -4 21 12 21 -17
0 -34 -20 -16 -24 -17 -41 -2 -22 19 -24 48 -3 48 8 0 15 -4 15 -9 0 -4 9 1
20 12 27 27 50 26 49 -2z"/>
<path d="M2786 807 c3 -10 9 -15 12 -12 3 3 0 11 -7 18 -10 9 -11 8 -5 -6z"/>
<path d="M2810 785 c0 -8 2 -15 4 -15 2 0 6 7 10 15 3 8 1 15 -4 15 -6 0 -10
-7 -10 -15z"/>
<path d="M2490 774 c1 -14 29 -48 35 -42 3 2 -4 15 -15 28 -11 13 -20 19 -20
14z"/>
<path d="M122 625 c0 -16 2 -22 5 -12 2 9 2 23 0 30 -3 6 -5 -1 -5 -18z"/>
<path d="M2166 515 c3 -16 10 -45 16 -63 5 -18 7 -44 4 -57 -3 -13 -2 -27 4
-30 6 -4 8 -45 6 -105 -4 -81 -2 -99 11 -104 23 -9 28 -7 15 6 -15 15 -16 48
-1 48 5 0 8 -4 5 -8 -2 -4 -1 -14 4 -21 5 -9 9 5 11 37 2 27 1 48 -3 45 -5 -2
-8 15 -8 39 0 24 -4 60 -9 80 -7 30 -5 40 8 52 16 14 20 12 52 -22 47 -49 112
-150 104 -161 -3 -5 -1 -12 5 -16 5 -3 10 -17 10 -31 0 -14 4 -22 10 -19 35
22 -20 133 -111 225 -58 59 -58 59 -74 37 -15 -21 -16 -22 -21 -2 -3 11 -14
38 -24 60 -17 35 -19 37 -14 10z"/>
<path d="M132 500 c0 -19 2 -27 5 -17 2 9 2 25 0 35 -3 9 -5 1 -5 -18z"/>
<path d="M132 410 c0 -14 2 -19 5 -12 2 6 2 18 0 25 -3 6 -5 1 -5 -13z"/>
<path d="M2890 376 c0 -2 9 -25 20 -50 19 -45 19 -46 0 -59 -11 -8 -18 -16
-15 -19 3 -3 1 -17 -4 -31 -8 -21 -6 -28 12 -43 12 -10 16 -12 10 -4 -7 8 -13
21 -13 30 1 12 4 11 17 -5 15 -19 15 -19 8 5 -13 49 -3 89 15 60 7 -11 10 -7
10 15 0 17 -11 47 -25 68 -23 33 -35 45 -35 33z"/>
<path d="M181 154 c0 -11 3 -14 6 -6 3 7 2 16 -1 19 -3 4 -6 -2 -5 -13z"/>
<path d="M2935 159 c-4 -6 -5 -12 -2 -15 2 -3 7 2 10 11 7 17 1 20 -8 4z"/>
<path d="M831 124 c0 -11 3 -14 6 -6 3 7 2 16 -1 19 -3 4 -6 -2 -5 -13z"/>
<path d="M512 90 c0 -14 2 -19 5 -12 2 6 2 18 0 25 -3 6 -5 1 -5 -13z"/>
</g>
</svg>
